<svg width="201" height="29" viewBox="0 0 201 29" fill="none" xmlns="http://www.w3.org/2000/svg">
<path d="M70.1996 22.2259C68.5966 22.2259 67.1835 21.8778 65.9601 21.1818C64.7368 20.4858 63.7666 19.5155 63.0494 18.2711C62.3534 17.0267 62.0054 15.6029 62.0054 14C62.0054 12.397 62.3534 10.9732 63.0494 9.72881C63.7666 8.48438 64.7368 7.51414 65.9601 6.8181C67.1835 6.12207 68.5966 5.77405 70.1996 5.77405C72.2034 5.77405 73.8907 6.30135 75.2617 7.35595C76.6327 8.38946 77.508 9.82372 77.8877 11.6587H73.6166C73.4056 10.8994 72.9838 10.3088 72.351 9.887C71.7394 9.44406 71.0117 9.2226 70.168 9.2226C69.0501 9.2226 68.101 9.64444 67.3206 10.4881C66.5402 11.3318 66.15 12.5024 66.15 14C66.15 15.4975 66.5402 16.6681 67.3206 17.5118C68.101 18.3555 69.0501 18.7773 70.168 18.7773C71.0117 18.7773 71.7394 18.5664 72.351 18.1445C72.9838 17.7227 73.4056 17.1216 73.6166 16.3412H77.8877C77.508 18.1129 76.6327 19.5366 75.2617 20.6123C73.8907 21.688 72.2034 22.2259 70.1996 22.2259Z" fill="#F1F1F9"/>
<path d="M88.3792 22.2259C86.8606 22.2259 85.4896 21.8778 84.2662 21.1818C83.064 20.4858 82.1043 19.5261 81.3872 18.3027C80.6911 17.0583 80.3431 15.624 80.3431 14C80.3431 12.3759 80.7017 10.9521 81.4188 9.72881C82.1359 8.48438 83.0956 7.51414 84.2979 6.8181C85.5212 6.12207 86.8922 5.77405 88.4108 5.77405C89.9084 5.77405 91.2582 6.12207 92.4605 6.8181C93.6838 7.51414 94.6435 8.48438 95.3396 9.72881C96.0567 10.9521 96.4153 12.3759 96.4153 14C96.4153 15.624 96.0567 17.0583 95.3396 18.3027C94.6435 19.5261 93.6838 20.4858 92.4605 21.1818C91.2372 21.8778 89.8767 22.2259 88.3792 22.2259ZM88.3792 18.714C89.4338 18.714 90.3513 18.3238 91.1317 17.5434C91.9121 16.7419 92.3023 15.5608 92.3023 14C92.3023 12.4391 91.9121 11.2685 91.1317 10.4881C90.3513 9.68662 89.4443 9.28588 88.4108 9.28588C87.3351 9.28588 86.4071 9.68662 85.6267 10.4881C84.8674 11.2685 84.4877 12.4391 84.4877 14C84.4877 15.5608 84.8674 16.7419 85.6267 17.5434C86.4071 18.3238 87.3246 18.714 88.3792 18.714Z" fill="#F1F1F9"/>
<path d="M99.4033 21.8462V6.1537H102.978L103.326 8.27346C103.833 7.51414 104.497 6.91302 105.32 6.47009C106.163 6.00606 107.134 5.77405 108.23 5.77405C110.656 5.77405 112.375 6.71264 113.387 8.58984C113.957 7.72506 114.716 7.03957 115.665 6.53336C116.636 6.02715 117.69 5.77405 118.829 5.77405C120.875 5.77405 122.446 6.38572 123.543 7.60906C124.64 8.8324 125.188 10.6252 125.188 12.9875V21.8462H121.139V13.3672C121.139 12.0173 120.875 10.9838 120.348 10.2667C119.842 9.54953 119.051 9.19096 117.975 9.19096C116.878 9.19096 115.992 9.59171 115.317 10.3932C114.663 11.1947 114.337 12.3126 114.337 13.7468V21.8462H110.287V13.3672C110.287 12.0173 110.023 10.9838 109.496 10.2667C108.969 9.54953 108.157 9.19096 107.06 9.19096C105.984 9.19096 105.109 9.59171 104.434 10.3932C103.78 11.1947 103.453 12.3126 103.453 13.7468V21.8462H99.4033Z" fill="#F1F1F9"/>
<path d="M128.4 28.8066V6.1537H132.007L132.45 8.40001C132.956 7.70397 133.621 7.0923 134.443 6.565C135.287 6.0377 136.373 5.77405 137.702 5.77405C139.178 5.77405 140.497 6.13261 141.657 6.84974C142.817 7.56687 143.734 8.54765 144.409 9.79209C145.084 11.0365 145.422 12.4497 145.422 14.0316C145.422 15.6135 145.084 17.0267 144.409 18.2711C143.734 19.4944 142.817 20.4647 141.657 21.1818C140.497 21.8778 139.178 22.2259 137.702 22.2259C136.521 22.2259 135.487 22.0044 134.601 21.5615C133.716 21.1185 132.998 20.4963 132.45 19.6948V28.8066H128.4ZM136.848 18.6824C138.134 18.6824 139.2 18.25 140.043 17.3852C140.887 16.5205 141.309 15.4026 141.309 14.0316C141.309 12.6606 140.887 11.5322 140.043 10.6463C139.2 9.76045 138.134 9.31751 136.848 9.31751C135.54 9.31751 134.464 9.76045 133.621 10.6463C132.798 11.5111 132.387 12.629 132.387 14C132.387 15.3709 132.798 16.4994 133.621 17.3852C134.464 18.25 135.54 18.6824 136.848 18.6824Z" fill="#F1F1F9"/>
<path d="M153.817 22.2259C152.467 22.2259 151.359 22.0149 150.495 21.5931C149.63 21.1502 148.987 20.5701 148.565 19.853C148.143 19.1359 147.932 18.3449 147.932 17.4801C147.932 16.0248 148.501 14.8436 149.64 13.9367C150.779 13.0297 152.488 12.5762 154.766 12.5762H158.752V12.1966C158.752 11.1209 158.446 10.3299 157.835 9.82372C157.223 9.31751 156.464 9.06441 155.557 9.06441C154.734 9.06441 154.017 9.26478 153.405 9.66553C152.794 10.0452 152.414 10.6147 152.266 11.374H148.312C148.417 10.235 148.797 9.24369 149.451 8.40001C150.126 7.55633 150.99 6.91302 152.045 6.47009C153.1 6.00606 154.281 5.77405 155.588 5.77405C157.824 5.77405 159.585 6.33299 160.872 7.45087C162.159 8.56874 162.802 10.1507 162.802 12.1966V21.8462H159.353L158.974 19.3151C158.51 20.1588 157.856 20.8549 157.012 21.4033C156.19 21.9517 155.124 22.2259 153.817 22.2259ZM154.734 19.062C155.894 19.062 156.791 18.6824 157.423 17.9231C158.077 17.1638 158.489 16.2252 158.657 15.1073H155.209C154.133 15.1073 153.363 15.3077 152.899 15.7084C152.435 16.0881 152.203 16.5626 152.203 17.1321C152.203 17.7438 152.435 18.2184 152.899 18.5558C153.363 18.8933 153.975 19.062 154.734 19.062Z" fill="#F1F1F9"/>
<path d="M166.034 21.8462V6.1537H169.609L169.925 8.8113C170.41 7.88325 171.106 7.14503 172.013 6.59664C172.941 6.04824 174.028 5.77405 175.272 5.77405C177.212 5.77405 178.721 6.38572 179.796 7.60906C180.872 8.8324 181.41 10.6252 181.41 12.9875V21.8462H177.36V13.3672C177.36 12.0173 177.086 10.9838 176.537 10.2667C175.989 9.54953 175.135 9.19096 173.975 9.19096C172.836 9.19096 171.897 9.59171 171.159 10.3932C170.442 11.1947 170.083 12.3126 170.083 13.7468V21.8462H166.034Z" fill="#F1F1F9"/>
<path d="M186.086 28.8066L189.724 20.8021H188.775L182.669 6.1537H187.067L191.464 17.1954L196.052 6.1537H200.355L190.389 28.8066H186.086Z" fill="#F1F1F9"/>
<path d="M15.8484 26.0789C14.7903 27.137 13.0744 27.1355 12.0181 26.0756L1.90695 15.9297C0.853244 14.8724 0.854711 13.1615 1.91023 12.106L12.0214 1.99483C13.0769 0.939306 14.7878 0.937838 15.8451 1.99155L25.991 12.1027C27.0509 13.159 27.0524 14.8749 25.9943 15.933L15.8484 26.0789Z" fill="#9C97D3"/>
<path d="M29.8251 26.0746C28.7689 27.1345 27.0529 27.136 25.9948 26.0779L15.8489 15.932C14.7908 14.8739 14.7923 13.158 15.8522 12.1017L25.9981 1.99057C27.0554 0.936863 28.7663 0.938329 29.8218 1.99385L39.933 12.105C40.9885 13.1605 40.99 14.8714 39.9363 15.9287L29.8251 26.0746Z" fill="#E0DFF1"/>
<path d="M40.1853 26.0767C39.1282 27.1355 37.4125 27.1355 36.3553 26.0767L26.225 15.9305C25.169 14.8728 25.1704 13.1591 26.2283 12.1032L36.3586 1.99179C37.415 0.937361 39.1257 0.937361 40.1821 1.99179L50.3123 12.1032C51.3702 13.1591 51.3717 14.8728 50.3156 15.9305L40.1853 26.0767Z" fill="#9C97D3"/>
</svg>
