<svg width="177" height="29" viewBox="0 0 177 29" fill="none" xmlns="http://www.w3.org/2000/svg">
<path d="M22.1099 12.2437C18.3495 12.2437 15.297 9.20287 15.297 5.46565C15.297 4.97818 15.3551 4.51393 15.4479 4.04968H6.39502C2.88992 4.04968 0.0463867 6.88161 0.0463867 10.3635V22.0278C0.0463867 25.5213 2.88992 28.3416 6.39502 28.3416H18.1174C21.6341 28.3416 24.466 25.5097 24.466 22.0278V11.8143C23.7464 12.0812 22.9456 12.2437 22.1099 12.2437Z" fill="#9C97D3"/>
<path d="M24.4769 22.0278V11.8143C23.7457 12.0812 22.9448 12.2437 22.1208 12.2437C18.3603 12.2437 15.3079 9.20287 15.3079 5.46565C15.3079 4.97818 15.3659 4.51393 15.4588 4.04968H6.40588C2.924 4.04968 0.103676 6.83519 0.057251 10.2939C8.41377 13.7409 17.0024 17.9308 24.4304 22.8286C24.4536 22.5617 24.4769 22.2947 24.4769 22.0278Z" fill="#9C97D3"/>
<path d="M22.6314 9.90252C25.3589 9.90252 27.5641 7.70894 27.5641 4.99307C27.5641 2.28881 25.3589 0.0836182 22.6314 0.0836182C19.9039 0.0836182 17.6987 2.2772 17.6987 4.99307C17.6987 7.69733 19.9039 9.90252 22.6314 9.90252Z" fill="#E0DFF1"/>
<path d="M52.5166 16.1477C52.3225 16.9727 51.9949 17.7735 51.5338 18.5501C51.0728 19.3024 50.5025 19.9818 49.823 20.5885C49.1435 21.1709 48.367 21.6441 47.4934 22.0081C46.6198 22.3479 45.6855 22.5177 44.6906 22.5177C43.55 22.5177 42.4701 22.2993 41.4509 21.8625C40.456 21.4014 39.5702 20.7826 38.7937 20.0061C38.0414 19.2296 37.4348 18.3317 36.9737 17.3125C36.5369 16.269 36.3185 15.1527 36.3185 13.9636C36.3185 12.7746 36.5369 11.6704 36.9737 10.6512C37.4348 9.60772 38.0414 8.69771 38.7937 7.92117C39.5702 7.14463 40.456 6.53796 41.4509 6.10115C42.4701 5.64008 43.55 5.40955 44.6906 5.40955C45.6855 5.40955 46.6198 5.59155 47.4934 5.95555C48.367 6.29529 49.1435 6.76849 49.823 7.37517C50.5025 7.95757 51.0728 8.63705 51.5338 9.41359C51.9949 10.1659 52.3225 10.9545 52.5166 11.7796H48.3306C48.1365 11.3428 47.8695 10.9545 47.5298 10.6148C47.2386 10.3236 46.8625 10.0567 46.4014 9.81399C45.9403 9.54705 45.37 9.41359 44.6906 9.41359C43.5015 9.41359 42.5065 9.82612 41.7057 10.6512C40.9049 11.4763 40.5045 12.5804 40.5045 13.9636C40.5045 15.3468 40.9049 16.451 41.7057 17.2761C42.5065 18.1011 43.5015 18.5137 44.6906 18.5137C45.37 18.5137 45.9403 18.3923 46.4014 18.1497C46.8625 17.907 47.2386 17.6401 47.5298 17.3489C47.8695 17.0091 48.1365 16.6087 48.3306 16.1477H52.5166Z" fill="#F1F1F9"/>
<path d="M59.4327 13.9636C59.4327 15.3468 59.8331 16.451 60.6339 17.2761C61.4347 18.1011 62.4297 18.5137 63.6188 18.5137C64.8078 18.5137 65.8028 18.1011 66.6036 17.2761C67.4044 16.451 67.8048 15.3468 67.8048 13.9636C67.8048 12.5804 67.4044 11.4763 66.6036 10.6512C65.8028 9.82612 64.8078 9.41359 63.6188 9.41359C62.4297 9.41359 61.4347 9.82612 60.6339 10.6512C59.8331 11.4763 59.4327 12.5804 59.4327 13.9636ZM71.9908 13.9636C71.9908 15.1527 71.7603 16.269 71.2992 17.3125C70.8624 18.3317 70.2558 19.2296 69.4792 20.0061C68.7269 20.7826 67.8412 21.4014 66.822 21.8625C65.827 22.2993 64.7593 22.5177 63.6188 22.5177C62.4782 22.5177 61.3983 22.2993 60.3791 21.8625C59.3842 21.4014 58.4984 20.7826 57.7219 20.0061C56.9696 19.2296 56.3629 18.3317 55.9019 17.3125C55.4651 16.269 55.2467 15.1527 55.2467 13.9636C55.2467 12.7746 55.4651 11.6704 55.9019 10.6512C56.3629 9.60772 56.9696 8.69771 57.7219 7.92117C58.4984 7.14463 59.3842 6.53796 60.3791 6.10115C61.3983 5.64008 62.4782 5.40955 63.6188 5.40955C64.7593 5.40955 65.827 5.64008 66.822 6.10115C67.8412 6.53796 68.7269 7.14463 69.4792 7.92117C70.2558 8.69771 70.8624 9.60772 71.2992 10.6512C71.7603 11.6704 71.9908 12.7746 71.9908 13.9636Z" fill="#F1F1F9"/>
<path d="M83.6219 5.40955C84.4712 5.40955 85.1992 5.53088 85.8059 5.77355C86.4126 5.99195 86.9101 6.23462 87.2983 6.50156C87.7351 6.81703 88.087 7.18103 88.3539 7.59357C88.7422 7.18103 89.1911 6.81703 89.7008 6.50156C90.1376 6.23462 90.6593 5.99195 91.266 5.77355C91.8726 5.53088 92.54 5.40955 93.268 5.40955C95.088 5.40955 96.544 5.99195 97.636 7.15676C98.728 8.32158 99.274 10.0445 99.274 12.3256V22.3357H95.088V12.6896C95.088 11.6704 94.8089 10.8696 94.2508 10.2872C93.7169 9.70479 93.086 9.41359 92.358 9.41359C91.63 9.41359 90.9869 9.70479 90.4288 10.2872C89.8949 10.8696 89.628 11.6704 89.628 12.6896V22.3357H85.4419V12.6896C85.4419 11.6704 85.1628 10.8696 84.6047 10.2872C84.0708 9.70479 83.4399 9.41359 82.7119 9.41359C81.9839 9.41359 81.3408 9.70479 80.7827 10.2872C80.2488 10.8696 79.9819 11.6704 79.9819 12.6896V22.3357H75.7958V5.59155H78.8898L79.6179 7.22956C79.9576 6.88983 80.3337 6.58649 80.7463 6.31955C81.086 6.10115 81.4985 5.89488 81.9839 5.70075C82.4692 5.50661 83.0152 5.40955 83.6219 5.40955Z" fill="#F1F1F9"/>
<path d="M112.378 5.40955C113.422 5.40955 114.417 5.62795 115.363 6.06475C116.309 6.47729 117.134 7.07183 117.838 7.84837C118.566 8.60065 119.137 9.49852 119.549 10.542C119.986 11.5855 120.204 12.726 120.204 13.9636C120.204 15.2012 119.986 16.3418 119.549 17.3853C119.137 18.4287 118.566 19.3388 117.838 20.1153C117.134 20.8676 116.309 21.4621 115.363 21.8989C114.417 22.3115 113.422 22.5177 112.378 22.5177C111.674 22.5177 111.056 22.4328 110.522 22.2629C110.012 22.0931 109.563 21.911 109.175 21.7169C108.738 21.4742 108.35 21.1952 108.01 20.8797V28.1598H103.824V5.59155H106.918L107.646 7.22956C108.01 6.88983 108.435 6.58649 108.92 6.31955C109.333 6.10115 109.83 5.89488 110.413 5.70075C110.995 5.50661 111.65 5.40955 112.378 5.40955ZM107.646 13.9636C107.646 15.3468 108.047 16.451 108.847 17.2761C109.648 18.1011 110.643 18.5137 111.832 18.5137C113.021 18.5137 114.016 18.1011 114.817 17.2761C115.618 16.451 116.018 15.3468 116.018 13.9636C116.018 12.5804 115.618 11.4763 114.817 10.6512C114.016 9.82612 113.021 9.41359 111.832 9.41359C110.643 9.41359 109.648 9.82612 108.847 10.6512C108.047 11.4763 107.646 12.5804 107.646 13.9636Z" fill="#F1F1F9"/>
<path d="M130.948 5.40955C131.894 5.40955 132.768 5.57941 133.569 5.91915C134.37 6.23462 135.061 6.68356 135.644 7.26596C136.226 7.84837 136.675 8.53998 136.991 9.34079C137.33 10.1416 137.5 11.0152 137.5 11.9616V22.3357H134.406L133.678 20.6977C133.29 21.0374 132.865 21.3408 132.404 21.6077C131.992 21.8504 131.494 22.0688 130.912 22.2629C130.329 22.4328 129.674 22.5177 128.946 22.5177C127.126 22.5177 125.731 22.0809 124.76 21.2073C123.789 20.3094 123.304 19.1689 123.304 17.7857C123.304 16.9606 123.462 16.2083 123.777 15.5288C124.117 14.8251 124.675 14.2306 125.452 13.7452C126.228 13.2356 127.247 12.8474 128.509 12.5804C129.795 12.2892 131.397 12.1436 133.314 12.1436C133.314 11.2215 133.059 10.5056 132.55 9.99599C132.064 9.48639 131.409 9.23159 130.584 9.23159C130.026 9.23159 129.577 9.32865 129.237 9.52279C128.922 9.71692 128.667 9.92319 128.473 10.1416C128.254 10.4085 128.109 10.7119 128.036 11.0516H123.85C123.947 10.2751 124.165 9.54706 124.505 8.86758C124.869 8.18811 125.355 7.59357 125.961 7.08396C126.568 6.57436 127.284 6.17395 128.109 5.88275C128.958 5.56728 129.905 5.40955 130.948 5.40955ZM129.674 19.2417C130.766 19.2417 131.64 18.9262 132.295 18.2953C132.974 17.6401 133.314 16.8029 133.314 15.7837V15.0556C132.076 15.0556 131.082 15.1163 130.329 15.2376C129.577 15.3347 128.982 15.4924 128.546 15.7109C128.133 15.905 127.854 16.1477 127.708 16.4389C127.563 16.7301 127.49 17.0577 127.49 17.4217C127.49 17.8827 127.696 18.3074 128.109 18.6957C128.521 19.0597 129.043 19.2417 129.674 19.2417Z" fill="#F1F1F9"/>
<path d="M150.59 5.40955C151.585 5.40955 152.495 5.57941 153.32 5.91915C154.145 6.23462 154.849 6.70783 155.431 7.33877C156.038 7.94544 156.499 8.68558 156.814 9.55919C157.154 10.4328 157.324 11.4156 157.324 12.5076V22.3357H153.138V13.0536C153.138 11.9616 152.81 11.088 152.155 10.4328C151.524 9.75332 150.699 9.41359 149.68 9.41359C148.661 9.41359 147.824 9.75332 147.168 10.4328C146.537 11.088 146.222 11.9616 146.222 13.0536V22.3357H142.036V5.59155H145.13L145.858 7.22956C146.271 6.88983 146.719 6.58649 147.205 6.31955C147.617 6.10115 148.103 5.89488 148.661 5.70075C149.243 5.50661 149.886 5.40955 150.59 5.40955Z" fill="#F1F1F9"/>
<path d="M160.068 5.59155H164.436L168.622 16.5117L172.444 5.59155H176.813C175.623 8.64918 174.544 11.4156 173.573 13.8908C173.16 14.9586 172.748 16.0021 172.335 17.0213C171.947 18.0405 171.595 18.9748 171.28 19.8241C170.964 20.6492 170.697 21.3408 170.479 21.8989C170.26 22.4571 170.127 22.7847 170.078 22.8817C169.666 23.8767 169.253 24.7139 168.841 25.3933C168.453 26.0971 168.028 26.6674 167.567 27.1042C167.106 27.541 166.608 27.8564 166.074 28.0506C165.541 28.2447 164.934 28.3418 164.254 28.3418C164.06 28.3418 163.866 28.3296 163.672 28.3054C163.502 28.3054 163.357 28.2932 163.235 28.269C163.065 28.2447 162.92 28.2083 162.798 28.1598V24.7017C163.721 24.7017 164.424 24.4955 164.91 24.0829C165.419 23.6704 165.807 23.1487 166.074 22.5177L166.438 21.6077L160.068 5.59155Z" fill="#F1F1F9"/>
</svg>
