<svg width="180" height="29" viewBox="0 0 180 29" fill="none" xmlns="http://www.w3.org/2000/svg">
<path d="M40.5485 11.512C40.5485 9.6119 40.9728 7.91474 41.8213 6.42051C42.6884 4.90783 43.8598 3.73642 45.3355 2.90629C46.8298 2.05771 48.4993 1.63342 50.344 1.63342C52.5023 1.63342 54.3932 2.18684 56.0166 3.29368C57.6399 4.40053 58.7744 5.93165 59.4201 7.88707H54.9651C54.5223 6.96471 53.8951 6.27293 53.0834 5.81175C52.2902 5.35056 51.3678 5.11997 50.3163 5.11997C49.191 5.11997 48.1857 5.38746 47.3002 5.92243C46.4332 6.43896 45.7506 7.17685 45.2525 8.13611C44.7729 9.09537 44.5331 10.2207 44.5331 11.512C44.5331 12.7848 44.7729 13.9101 45.2525 14.8878C45.7506 15.8471 46.4332 16.5942 47.3002 17.1292C48.1857 17.6457 49.191 17.904 50.3163 17.904C51.3678 17.904 52.2902 17.6734 53.0834 17.2122C53.8951 16.7326 54.5223 16.0316 54.9651 15.1092H59.4201C58.7744 17.0831 57.6399 18.6234 56.0166 19.7303C54.4116 20.8187 52.5208 21.3629 50.344 21.3629C48.4993 21.3629 46.8298 20.9478 45.3355 20.1177C43.8598 19.2691 42.6884 18.0977 41.8213 16.6034C40.9728 15.1092 40.5485 13.4121 40.5485 11.512Z" fill="#F1F1F9"/>
<path d="M69.536 21.4459C68.0602 21.4459 66.732 21.123 65.5514 20.4774C64.3707 19.8133 63.4392 18.8817 62.7566 17.6826C62.0925 16.4835 61.7604 15.1 61.7604 13.532C61.7604 11.9639 62.1017 10.5804 62.7843 9.38131C63.4853 8.18223 64.4353 7.25986 65.6344 6.61421C66.8335 5.9501 68.1709 5.61805 69.6467 5.61805C71.1225 5.61805 72.4599 5.9501 73.659 6.61421C74.8581 7.25986 75.7989 8.18223 76.4814 9.38131C77.1824 10.5804 77.5329 11.9639 77.5329 13.532C77.5329 15.1 77.1732 16.4835 76.4538 17.6826C75.7528 18.8817 74.7935 19.8133 73.576 20.4774C72.3769 21.123 71.0302 21.4459 69.536 21.4459ZM69.536 18.07C70.237 18.07 70.8919 17.904 71.5006 17.5719C72.1279 17.2214 72.6259 16.7049 72.9949 16.0224C73.3638 15.3398 73.5483 14.5097 73.5483 13.532C73.5483 12.0746 73.1609 10.9586 72.3861 10.1838C71.6298 9.39053 70.6982 8.99391 69.5913 8.99391C68.4845 8.99391 67.5529 9.39053 66.7966 10.1838C66.0587 10.9586 65.6897 12.0746 65.6897 13.532C65.6897 14.9893 66.0495 16.1146 66.7689 16.9078C67.5068 17.6826 68.4292 18.07 69.536 18.07Z" fill="#F1F1F9"/>
<path d="M99.4123 5.64572C101.294 5.64572 102.807 6.22681 103.95 7.38899C105.112 8.53273 105.694 10.1376 105.694 12.2038V21.1968H101.82V12.7295C101.82 11.5304 101.515 10.6173 100.906 9.99007C100.298 9.34441 99.4676 9.02158 98.4161 9.02158C97.3646 9.02158 96.5252 9.34441 95.898 9.99007C95.2893 10.6173 94.9849 11.5304 94.9849 12.7295V21.1968H91.111V12.7295C91.111 11.5304 90.8066 10.6173 90.1978 9.99007C89.5891 9.34441 88.7589 9.02158 87.7074 9.02158C86.6375 9.02158 85.7889 9.34441 85.1617 9.99007C84.5529 10.6173 84.2485 11.5304 84.2485 12.7295V21.1968H80.3746V5.86709H84.2485V7.72105C84.7466 7.07539 85.3831 6.56809 86.1578 6.19914C86.9511 5.83019 87.8181 5.64572 88.7589 5.64572C89.958 5.64572 91.0279 5.90398 91.9688 6.42051C92.9096 6.91859 93.6382 7.63803 94.1548 8.57885C94.6528 7.69338 95.3723 6.98315 96.3131 6.44818C97.2724 5.91321 98.3054 5.64572 99.4123 5.64572Z" fill="#F1F1F9"/>
<path d="M113.244 8.08077C113.742 7.37977 114.424 6.79868 115.291 6.3375C116.177 5.85787 117.182 5.61805 118.307 5.61805C119.617 5.61805 120.798 5.94088 121.849 6.58654C122.919 7.23219 123.759 8.15456 124.367 9.35364C124.995 10.5343 125.308 11.9086 125.308 13.4766C125.308 15.0446 124.995 16.4374 124.367 17.6549C123.759 18.854 122.919 19.7856 121.849 20.4497C120.798 21.1138 119.617 21.4459 118.307 21.4459C117.182 21.4459 116.186 21.2153 115.319 20.7541C114.47 20.2929 113.779 19.7118 113.244 19.0108V28.502H109.37V5.86709H113.244V8.08077ZM121.351 13.4766C121.351 12.5543 121.158 11.761 120.77 11.0969C120.401 10.4144 119.903 9.89783 119.276 9.54733C118.667 9.19683 118.003 9.02158 117.284 9.02158C116.583 9.02158 115.919 9.20606 115.291 9.57501C114.683 9.9255 114.184 10.442 113.797 11.1246C113.428 11.8071 113.244 12.6096 113.244 13.532C113.244 14.4543 113.428 15.2568 113.797 15.9393C114.184 16.6219 114.683 17.1476 115.291 17.5166C115.919 17.8671 116.583 18.0423 117.284 18.0423C118.003 18.0423 118.667 17.8579 119.276 17.4889C119.903 17.12 120.401 16.5942 120.77 15.9117C121.158 15.2291 121.351 14.4174 121.351 13.4766Z" fill="#F1F1F9"/>
<path d="M127.127 13.4766C127.127 11.927 127.432 10.5527 128.04 9.35364C128.667 8.15456 129.507 7.23219 130.558 6.58654C131.628 5.94088 132.818 5.61805 134.128 5.61805C135.272 5.61805 136.268 5.84864 137.116 6.30982C137.983 6.77101 138.675 7.3521 139.192 8.0531V5.86709H143.093V21.1968H139.192V18.9555C138.694 19.6749 138.002 20.2745 137.116 20.7541C136.249 21.2153 135.244 21.4459 134.1 21.4459C132.809 21.4459 131.628 21.1138 130.558 20.4497C129.507 19.7856 128.667 18.854 128.04 17.6549C127.432 16.4374 127.127 15.0446 127.127 13.4766ZM139.192 13.532C139.192 12.5911 139.007 11.7887 138.638 11.1246C138.269 10.442 137.771 9.9255 137.144 9.57501C136.517 9.20606 135.844 9.02158 135.124 9.02158C134.405 9.02158 133.741 9.19683 133.132 9.54733C132.523 9.89783 132.025 10.4144 131.638 11.0969C131.269 11.761 131.084 12.5543 131.084 13.4766C131.084 14.399 131.269 15.2107 131.638 15.9117C132.025 16.5942 132.523 17.12 133.132 17.4889C133.759 17.8579 134.423 18.0423 135.124 18.0423C135.844 18.0423 136.517 17.8671 137.144 17.5166C137.771 17.1476 138.269 16.6311 138.638 15.967C139.007 15.2845 139.192 14.4728 139.192 13.532Z" fill="#F1F1F9"/>
<path d="M155.372 5.64572C157.198 5.64572 158.674 6.22681 159.799 7.38899C160.925 8.53273 161.487 10.1376 161.487 12.2038V21.1968H157.613V12.7295C157.613 11.512 157.309 10.5804 156.7 9.93473C156.091 9.27062 155.261 8.93857 154.21 8.93857C153.14 8.93857 152.291 9.27062 151.664 9.93473C151.055 10.5804 150.751 11.512 150.751 12.7295V21.1968H146.877V5.86709H150.751V7.77639C151.267 7.11228 151.922 6.59576 152.715 6.22681C153.527 5.83942 154.413 5.64572 155.372 5.64572Z" fill="#F1F1F9"/>
<path d="M179.837 5.86709L170.346 28.4466H166.223L169.543 20.8094L163.4 5.86709H167.745L171.701 16.5758L175.714 5.86709H179.837Z" fill="#F1F1F9"/>
<path d="M11.5032 28.2976C5.58841 28.2976 0.8125 23.485 0.8125 17.6069C0.8125 11.7289 5.58841 6.91626 11.5032 6.91626C17.3812 6.91626 22.1939 11.6922 22.1939 17.6069C22.1571 23.485 17.3812 28.2976 11.5032 28.2976Z" fill="#9C97D3"/>
<path d="M27.3052 0.0836182H13.2248C12.2739 0.0836182 11.5031 0.854464 11.5031 1.80535V15.8858C11.5031 16.8367 12.2739 17.6075 13.2248 17.6075H27.3052C28.2561 17.6075 29.027 16.8367 29.027 15.8858V1.80535C29.027 0.854464 28.2561 0.0836182 27.3052 0.0836182Z" fill="#E0DFF1"/>
</svg>
