<svg width="175" height="29" viewBox="0 0 175 29" fill="none" xmlns="http://www.w3.org/2000/svg">
<path d="M60.3029 15.3647C59.0399 17.4136 57.2436 18.5924 54.9141 18.5924C51.5462 18.5924 49.0763 15.8699 49.0763 12.3616C49.0763 8.85333 51.4339 6.15896 54.9703 6.15896C57.2156 6.15896 59.2363 7.42194 60.2467 9.33046L63.5024 6.74835C61.8465 3.80138 58.8434 2.0332 55.0264 2.0332C48.9079 2.0332 44.6138 6.57995 44.6138 12.3616C44.6138 18.1433 48.9921 22.7181 54.9703 22.7181C58.7312 22.7181 61.8746 20.7254 63.5866 17.8907L60.3029 15.3647Z" fill="#F1F1F9"/>
<path d="M72.5021 7.64648C68.0115 7.64648 64.7838 10.9022 64.7838 15.1683C64.7838 19.4063 68.0115 22.7181 72.5021 22.7181C76.9927 22.7181 80.2203 19.4063 80.2203 15.1683C80.2203 10.9022 76.9927 7.64648 72.5021 7.64648ZM72.5021 11.4354C74.4387 11.4354 75.8981 12.923 75.8981 15.1683C75.8981 17.4136 74.4387 18.9292 72.5021 18.9292C70.5655 18.9292 69.1061 17.4136 69.1061 15.1683C69.1061 12.923 70.5655 11.4354 72.5021 11.4354Z" fill="#F1F1F9"/>
<path d="M83.0088 7.98327V22.3813H87.2749V14.8876C87.2749 13.0072 88.2572 11.4074 90.0534 11.4074C91.6252 11.4074 92.6355 12.3897 92.6355 14.2701V22.3813H96.9016V14.8876C96.9016 13.0072 97.884 11.4074 99.6802 11.4074C101.252 11.4074 102.234 12.3897 102.234 14.2701V22.3813H106.5V13.6246C106.5 9.89178 104.395 7.64648 100.943 7.64648C98.5014 7.64648 97.1262 8.713 96.0877 10.1724C95.1054 8.57267 93.5337 7.64648 91.3164 7.64648C89.436 7.64648 88.0327 8.3762 87.1065 9.83565V7.98327H83.0088Z" fill="#F1F1F9"/>
<path d="M117.693 11.4074C119.517 11.4074 121.033 12.8949 121.033 15.2244C121.033 17.4697 119.517 18.9572 117.693 18.9572C115.785 18.9572 114.297 17.4978 114.297 15.2244C114.297 12.8668 115.785 11.4074 117.693 11.4074ZM114.101 7.98327H110.143V27.9946H114.409V20.8096C115.307 22.1568 117.02 22.7181 118.563 22.7181C122.492 22.7181 125.327 19.4624 125.327 15.1683C125.327 10.7338 122.268 7.64648 118.591 7.64648C117.188 7.64648 115.223 8.23587 114.101 9.97598V7.98327Z" fill="#F1F1F9"/>
<path d="M135.589 13.4281L131.66 14.1859C128.628 14.8315 126.973 16.2909 126.973 18.424C126.973 20.9219 128.937 22.7181 131.744 22.7181C133.652 22.7181 135.056 21.8761 135.729 20.6131V22.3813H139.687V13.3159C139.687 9.80759 137.301 7.64648 133.287 7.64648C130.593 7.64648 128.432 8.76913 127.113 10.3689L129.33 13.0633C130.2 12.081 131.435 11.3232 133.035 11.3232C134.494 11.3232 135.589 11.8845 135.589 13.3159V13.4281ZM132.698 19.5466C131.688 19.5466 131.042 18.9853 131.042 18.1714C131.042 17.3855 131.604 16.8803 132.754 16.6838L135.617 16.1225V16.5435C135.617 18.2556 134.466 19.5466 132.698 19.5466Z" fill="#F1F1F9"/>
<path d="M143.28 7.98327V22.3813H147.546V14.8876C147.546 13.0072 148.529 11.4074 150.381 11.4074C151.953 11.4074 152.963 12.3897 152.963 14.2701V22.3813H157.229V13.6246C157.229 9.89178 155.096 7.64648 151.644 7.64648C149.707 7.64648 148.304 8.3762 147.378 9.83565V7.98327H143.28Z" fill="#F1F1F9"/>
<path d="M164.195 21.8481L164.027 22.3252C163.409 24.374 162.371 24.7389 161.248 24.7389C160.771 24.7389 160.041 24.6828 159.283 24.2618V27.7981C159.929 28.1069 160.855 28.3314 161.865 28.3314C164.588 28.3314 166.328 27.0403 167.759 23.5601L174.046 7.98327H169.696L166.328 17.4136L162.988 7.98327H158.526L164.195 21.8481Z" fill="#F1F1F9"/>
<path d="M19.2098 0.0836182H14.7308C14.263 0.0836182 13.8838 0.462831 13.8838 0.930614V24.7778C13.8838 25.2456 14.263 25.6248 14.7308 25.6248H19.2098C19.6776 25.6248 20.0568 25.2456 20.0568 24.7778V0.930614C20.0568 0.462831 19.6776 0.0836182 19.2098 0.0836182Z" fill="#E0DFF1"/>
<path d="M28.339 25.6245C31.237 25.6245 33.5863 23.2752 33.5863 20.3773C33.5863 17.4793 31.237 15.13 28.339 15.13C25.4411 15.13 23.0918 17.4793 23.0918 20.3773C23.0918 23.2752 25.4411 25.6245 28.339 25.6245Z" fill="#9C97D3"/>
<path d="M28.339 10.5781C31.237 10.5781 33.5863 8.22884 33.5863 5.33086C33.5863 2.43289 31.237 0.0836182 28.339 0.0836182C25.4411 0.0836182 23.0918 2.43289 23.0918 5.33086C23.0918 8.22884 25.4411 10.5781 28.339 10.5781Z" fill="#9C97D3"/>
<path d="M5.60174 25.6245C8.49971 25.6245 10.849 23.2752 10.849 20.3773C10.849 17.4793 8.49971 15.13 5.60174 15.13C2.70376 15.13 0.354492 17.4793 0.354492 20.3773C0.354492 23.2752 2.70376 25.6245 5.60174 25.6245Z" fill="#9C97D3"/>
</svg>
